<?xml version="1.0" encoding="UTF-8" standalone="no"?>
<svg
   id="Layer_1"
   viewBox="0 0 754.53 300"
   version="1.1"
   sodipodi:docname="horizontal_dark_green.svg"
   inkscape:version="1.2.2 (b0a8486541, 2022-12-01)"
   xmlns:inkscape="http://www.inkscape.org/namespaces/inkscape"
   xmlns:sodipodi="http://sodipodi.sourceforge.net/DTD/sodipodi-0.dtd"
   xmlns="http://www.w3.org/2000/svg"
   xmlns:svg="http://www.w3.org/2000/svg">
  <sodipodi:namedview
     id="namedview2178"
     pagecolor="#ffffff"
     bordercolor="#000000"
     borderopacity="0.25"
     inkscape:showpageshadow="2"
     inkscape:pageopacity="0.0"
     inkscape:pagecheckerboard="0"
     inkscape:deskcolor="#d1d1d1"
     showgrid="false"
     inkscape:zoom="1.7175975"
     inkscape:cx="376.10674"
     inkscape:cy="139.73006"
     inkscape:window-width="1920"
     inkscape:window-height="1132"
     inkscape:window-x="0"
     inkscape:window-y="36"
     inkscape:window-maximized="1"
     inkscape:current-layer="Layer_1" />
  <defs
     id="defs2143">
    <style
       id="style2141">.cls-1{fill:#183717;stroke-width:0px;}</style>
    <filter
       style="color-interpolation-filters:sRGB;"
       inkscape:label="Colorize"
       id="filter4844"
       x="0"
       y="0"
       width="1"
       height="1">
      <feComposite
         in2="SourceGraphic"
         operator="arithmetic"
         k1="0"
         k2="1"
         result="composite1"
         id="feComposite4830" />
      <feColorMatrix
         in="composite1"
         values="1"
         type="saturate"
         result="colormatrix1"
         id="feColorMatrix4832" />
      <feFlood
         flood-opacity="1"
         flood-color="rgb(80,218,76)"
         result="flood1"
         id="feFlood4834" />
      <feBlend
         in="flood1"
         in2="colormatrix1"
         mode="multiply"
         result="blend1"
         id="feBlend4836" />
      <feBlend
         in2="blend1"
         mode="screen"
         result="blend2"
         id="feBlend4838" />
      <feColorMatrix
         in="blend2"
         values="1"
         type="saturate"
         result="colormatrix2"
         id="feColorMatrix4840" />
      <feComposite
         in="colormatrix2"
         in2="SourceGraphic"
         operator="in"
         k2="1"
         result="composite2"
         id="feComposite4842" />
    </filter>
    <filter
       style="color-interpolation-filters:sRGB;"
       inkscape:label="Colorize"
       id="filter4860"
       x="0"
       y="0"
       width="1"
       height="1">
      <feComposite
         in2="SourceGraphic"
         operator="arithmetic"
         k1="0"
         k2="1"
         result="composite1"
         id="feComposite4846" />
      <feColorMatrix
         in="composite1"
         values="1"
         type="saturate"
         result="colormatrix1"
         id="feColorMatrix4848" />
      <feFlood
         flood-opacity="1"
         flood-color="rgb(80,218,76)"
         result="flood1"
         id="feFlood4850" />
      <feBlend
         in="flood1"
         in2="colormatrix1"
         mode="multiply"
         result="blend1"
         id="feBlend4852" />
      <feBlend
         in2="blend1"
         mode="screen"
         result="blend2"
         id="feBlend4854" />
      <feColorMatrix
         in="blend2"
         values="1"
         type="saturate"
         result="colormatrix2"
         id="feColorMatrix4856" />
      <feComposite
         in="colormatrix2"
         in2="SourceGraphic"
         operator="in"
         k2="1"
         result="composite2"
         id="feComposite4858" />
    </filter>
    <filter
       style="color-interpolation-filters:sRGB;"
       inkscape:label="Colorize"
       id="filter4876"
       x="0"
       y="0"
       width="1"
       height="1">
      <feComposite
         in2="SourceGraphic"
         operator="arithmetic"
         k1="0"
         k2="1"
         result="composite1"
         id="feComposite4862" />
      <feColorMatrix
         in="composite1"
         values="1"
         type="saturate"
         result="colormatrix1"
         id="feColorMatrix4864" />
      <feFlood
         flood-opacity="1"
         flood-color="rgb(80,218,76)"
         result="flood1"
         id="feFlood4866" />
      <feBlend
         in="flood1"
         in2="colormatrix1"
         mode="multiply"
         result="blend1"
         id="feBlend4868" />
      <feBlend
         in2="blend1"
         mode="screen"
         result="blend2"
         id="feBlend4870" />
      <feColorMatrix
         in="blend2"
         values="1"
         type="saturate"
         result="colormatrix2"
         id="feColorMatrix4872" />
      <feComposite
         in="colormatrix2"
         in2="SourceGraphic"
         operator="in"
         k2="1"
         result="composite2"
         id="feComposite4874" />
    </filter>
    <filter
       style="color-interpolation-filters:sRGB;"
       inkscape:label="Colorize"
       id="filter4892"
       x="0"
       y="0"
       width="1"
       height="1">
      <feComposite
         in2="SourceGraphic"
         operator="arithmetic"
         k1="0"
         k2="1"
         result="composite1"
         id="feComposite4878" />
      <feColorMatrix
         in="composite1"
         values="1"
         type="saturate"
         result="colormatrix1"
         id="feColorMatrix4880" />
      <feFlood
         flood-opacity="1"
         flood-color="rgb(80,218,76)"
         result="flood1"
         id="feFlood4882" />
      <feBlend
         in="flood1"
         in2="colormatrix1"
         mode="multiply"
         result="blend1"
         id="feBlend4884" />
      <feBlend
         in2="blend1"
         mode="screen"
         result="blend2"
         id="feBlend4886" />
      <feColorMatrix
         in="blend2"
         values="1"
         type="saturate"
         result="colormatrix2"
         id="feColorMatrix4888" />
      <feComposite
         in="colormatrix2"
         in2="SourceGraphic"
         operator="in"
         k2="1"
         result="composite2"
         id="feComposite4890" />
    </filter>
    <filter
       style="color-interpolation-filters:sRGB;"
       inkscape:label="Colorize"
       id="filter4908"
       x="0"
       y="0"
       width="1"
       height="1">
      <feComposite
         in2="SourceGraphic"
         operator="arithmetic"
         k1="0"
         k2="1"
         result="composite1"
         id="feComposite4894" />
      <feColorMatrix
         in="composite1"
         values="1"
         type="saturate"
         result="colormatrix1"
         id="feColorMatrix4896" />
      <feFlood
         flood-opacity="1"
         flood-color="rgb(80,218,76)"
         result="flood1"
         id="feFlood4898" />
      <feBlend
         in="flood1"
         in2="colormatrix1"
         mode="multiply"
         result="blend1"
         id="feBlend4900" />
      <feBlend
         in2="blend1"
         mode="screen"
         result="blend2"
         id="feBlend4902" />
      <feColorMatrix
         in="blend2"
         values="1"
         type="saturate"
         result="colormatrix2"
         id="feColorMatrix4904" />
      <feComposite
         in="colormatrix2"
         in2="SourceGraphic"
         operator="in"
         k2="1"
         result="composite2"
         id="feComposite4906" />
    </filter>
    <filter
       style="color-interpolation-filters:sRGB;"
       inkscape:label="Colorize"
       id="filter4924"
       x="0"
       y="0"
       width="1"
       height="1">
      <feComposite
         in2="SourceGraphic"
         operator="arithmetic"
         k1="0"
         k2="1"
         result="composite1"
         id="feComposite4910" />
      <feColorMatrix
         in="composite1"
         values="1"
         type="saturate"
         result="colormatrix1"
         id="feColorMatrix4912" />
      <feFlood
         flood-opacity="1"
         flood-color="rgb(80,218,76)"
         result="flood1"
         id="feFlood4914" />
      <feBlend
         in="flood1"
         in2="colormatrix1"
         mode="multiply"
         result="blend1"
         id="feBlend4916" />
      <feBlend
         in2="blend1"
         mode="screen"
         result="blend2"
         id="feBlend4918" />
      <feColorMatrix
         in="blend2"
         values="1"
         type="saturate"
         result="colormatrix2"
         id="feColorMatrix4920" />
      <feComposite
         in="colormatrix2"
         in2="SourceGraphic"
         operator="in"
         k2="1"
         result="composite2"
         id="feComposite4922" />
    </filter>
    <filter
       style="color-interpolation-filters:sRGB;"
       inkscape:label="Colorize"
       id="filter4940"
       x="0"
       y="0"
       width="1"
       height="1">
      <feComposite
         in2="SourceGraphic"
         operator="arithmetic"
         k1="0"
         k2="1"
         result="composite1"
         id="feComposite4926" />
      <feColorMatrix
         in="composite1"
         values="1"
         type="saturate"
         result="colormatrix1"
         id="feColorMatrix4928" />
      <feFlood
         flood-opacity="1"
         flood-color="rgb(80,218,76)"
         result="flood1"
         id="feFlood4930" />
      <feBlend
         in="flood1"
         in2="colormatrix1"
         mode="multiply"
         result="blend1"
         id="feBlend4932" />
      <feBlend
         in2="blend1"
         mode="screen"
         result="blend2"
         id="feBlend4934" />
      <feColorMatrix
         in="blend2"
         values="1"
         type="saturate"
         result="colormatrix2"
         id="feColorMatrix4936" />
      <feComposite
         in="colormatrix2"
         in2="SourceGraphic"
         operator="in"
         k2="1"
         result="composite2"
         id="feComposite4938" />
    </filter>
    <filter
       style="color-interpolation-filters:sRGB;"
       inkscape:label="Colorize"
       id="filter4956"
       x="0"
       y="0"
       width="1"
       height="1">
      <feComposite
         in2="SourceGraphic"
         operator="arithmetic"
         k1="0"
         k2="1"
         result="composite1"
         id="feComposite4942" />
      <feColorMatrix
         in="composite1"
         values="1"
         type="saturate"
         result="colormatrix1"
         id="feColorMatrix4944" />
      <feFlood
         flood-opacity="1"
         flood-color="rgb(80,218,76)"
         result="flood1"
         id="feFlood4946" />
      <feBlend
         in="flood1"
         in2="colormatrix1"
         mode="multiply"
         result="blend1"
         id="feBlend4948" />
      <feBlend
         in2="blend1"
         mode="screen"
         result="blend2"
         id="feBlend4950" />
      <feColorMatrix
         in="blend2"
         values="1"
         type="saturate"
         result="colormatrix2"
         id="feColorMatrix4952" />
      <feComposite
         in="colormatrix2"
         in2="SourceGraphic"
         operator="in"
         k2="1"
         result="composite2"
         id="feComposite4954" />
    </filter>
    <filter
       style="color-interpolation-filters:sRGB;"
       inkscape:label="Colorize"
       id="filter4972"
       x="0"
       y="0"
       width="1"
       height="1">
      <feComposite
         in2="SourceGraphic"
         operator="arithmetic"
         k1="0"
         k2="1"
         result="composite1"
         id="feComposite4958" />
      <feColorMatrix
         in="composite1"
         values="1"
         type="saturate"
         result="colormatrix1"
         id="feColorMatrix4960" />
      <feFlood
         flood-opacity="1"
         flood-color="rgb(80,218,76)"
         result="flood1"
         id="feFlood4962" />
      <feBlend
         in="flood1"
         in2="colormatrix1"
         mode="multiply"
         result="blend1"
         id="feBlend4964" />
      <feBlend
         in2="blend1"
         mode="screen"
         result="blend2"
         id="feBlend4966" />
      <feColorMatrix
         in="blend2"
         values="1"
         type="saturate"
         result="colormatrix2"
         id="feColorMatrix4968" />
      <feComposite
         in="colormatrix2"
         in2="SourceGraphic"
         operator="in"
         k2="1"
         result="composite2"
         id="feComposite4970" />
    </filter>
    <filter
       style="color-interpolation-filters:sRGB;"
       inkscape:label="Colorize"
       id="filter4988"
       x="0"
       y="0"
       width="1"
       height="1">
      <feComposite
         in2="SourceGraphic"
         operator="arithmetic"
         k1="0"
         k2="1"
         result="composite1"
         id="feComposite4974" />
      <feColorMatrix
         in="composite1"
         values="1"
         type="saturate"
         result="colormatrix1"
         id="feColorMatrix4976" />
      <feFlood
         flood-opacity="1"
         flood-color="rgb(80,218,76)"
         result="flood1"
         id="feFlood4978" />
      <feBlend
         in="flood1"
         in2="colormatrix1"
         mode="multiply"
         result="blend1"
         id="feBlend4980" />
      <feBlend
         in2="blend1"
         mode="screen"
         result="blend2"
         id="feBlend4982" />
      <feColorMatrix
         in="blend2"
         values="1"
         type="saturate"
         result="colormatrix2"
         id="feColorMatrix4984" />
      <feComposite
         in="colormatrix2"
         in2="SourceGraphic"
         operator="in"
         k2="1"
         result="composite2"
         id="feComposite4986" />
    </filter>
    <filter
       style="color-interpolation-filters:sRGB;"
       inkscape:label="Colorize"
       id="filter5004"
       x="0"
       y="0"
       width="1"
       height="1">
      <feComposite
         in2="SourceGraphic"
         operator="arithmetic"
         k1="0"
         k2="1"
         result="composite1"
         id="feComposite4990" />
      <feColorMatrix
         in="composite1"
         values="1"
         type="saturate"
         result="colormatrix1"
         id="feColorMatrix4992" />
      <feFlood
         flood-opacity="1"
         flood-color="rgb(80,218,76)"
         result="flood1"
         id="feFlood4994" />
      <feBlend
         in="flood1"
         in2="colormatrix1"
         mode="multiply"
         result="blend1"
         id="feBlend4996" />
      <feBlend
         in2="blend1"
         mode="screen"
         result="blend2"
         id="feBlend4998" />
      <feColorMatrix
         in="blend2"
         values="1"
         type="saturate"
         result="colormatrix2"
         id="feColorMatrix5000" />
      <feComposite
         in="colormatrix2"
         in2="SourceGraphic"
         operator="in"
         k2="1"
         result="composite2"
         id="feComposite5002" />
    </filter>
    <filter
       style="color-interpolation-filters:sRGB;"
       inkscape:label="Colorize"
       id="filter5020"
       x="0"
       y="0"
       width="1"
       height="1">
      <feComposite
         in2="SourceGraphic"
         operator="arithmetic"
         k1="0"
         k2="1"
         result="composite1"
         id="feComposite5006" />
      <feColorMatrix
         in="composite1"
         values="1"
         type="saturate"
         result="colormatrix1"
         id="feColorMatrix5008" />
      <feFlood
         flood-opacity="1"
         flood-color="rgb(80,218,76)"
         result="flood1"
         id="feFlood5010" />
      <feBlend
         in="flood1"
         in2="colormatrix1"
         mode="multiply"
         result="blend1"
         id="feBlend5012" />
      <feBlend
         in2="blend1"
         mode="screen"
         result="blend2"
         id="feBlend5014" />
      <feColorMatrix
         in="blend2"
         values="1"
         type="saturate"
         result="colormatrix2"
         id="feColorMatrix5016" />
      <feComposite
         in="colormatrix2"
         in2="SourceGraphic"
         operator="in"
         k2="1"
         result="composite2"
         id="feComposite5018" />
    </filter>
    <filter
       style="color-interpolation-filters:sRGB;"
       inkscape:label="Colorize"
       id="filter5036"
       x="0"
       y="0"
       width="1"
       height="1">
      <feComposite
         in2="SourceGraphic"
         operator="arithmetic"
         k1="0"
         k2="1"
         result="composite1"
         id="feComposite5022" />
      <feColorMatrix
         in="composite1"
         values="1"
         type="saturate"
         result="colormatrix1"
         id="feColorMatrix5024" />
      <feFlood
         flood-opacity="1"
         flood-color="rgb(80,218,76)"
         result="flood1"
         id="feFlood5026" />
      <feBlend
         in="flood1"
         in2="colormatrix1"
         mode="multiply"
         result="blend1"
         id="feBlend5028" />
      <feBlend
         in2="blend1"
         mode="screen"
         result="blend2"
         id="feBlend5030" />
      <feColorMatrix
         in="blend2"
         values="1"
         type="saturate"
         result="colormatrix2"
         id="feColorMatrix5032" />
      <feComposite
         in="colormatrix2"
         in2="SourceGraphic"
         operator="in"
         k2="1"
         result="composite2"
         id="feComposite5034" />
    </filter>
    <filter
       style="color-interpolation-filters:sRGB;"
       inkscape:label="Colorize"
       id="filter5052"
       x="0"
       y="0"
       width="1"
       height="1">
      <feComposite
         in2="SourceGraphic"
         operator="arithmetic"
         k1="0"
         k2="1"
         result="composite1"
         id="feComposite5038" />
      <feColorMatrix
         in="composite1"
         values="1"
         type="saturate"
         result="colormatrix1"
         id="feColorMatrix5040" />
      <feFlood
         flood-opacity="1"
         flood-color="rgb(80,218,76)"
         result="flood1"
         id="feFlood5042" />
      <feBlend
         in="flood1"
         in2="colormatrix1"
         mode="multiply"
         result="blend1"
         id="feBlend5044" />
      <feBlend
         in2="blend1"
         mode="screen"
         result="blend2"
         id="feBlend5046" />
      <feColorMatrix
         in="blend2"
         values="1"
         type="saturate"
         result="colormatrix2"
         id="feColorMatrix5048" />
      <feComposite
         in="colormatrix2"
         in2="SourceGraphic"
         operator="in"
         k2="1"
         result="composite2"
         id="feComposite5050" />
    </filter>
    <filter
       style="color-interpolation-filters:sRGB;"
       inkscape:label="Colorize"
       id="filter5068"
       x="0"
       y="0"
       width="1"
       height="1">
      <feComposite
         in2="SourceGraphic"
         operator="arithmetic"
         k1="0"
         k2="1"
         result="composite1"
         id="feComposite5054" />
      <feColorMatrix
         in="composite1"
         values="1"
         type="saturate"
         result="colormatrix1"
         id="feColorMatrix5056" />
      <feFlood
         flood-opacity="1"
         flood-color="rgb(80,218,76)"
         result="flood1"
         id="feFlood5058" />
      <feBlend
         in="flood1"
         in2="colormatrix1"
         mode="multiply"
         result="blend1"
         id="feBlend5060" />
      <feBlend
         in2="blend1"
         mode="screen"
         result="blend2"
         id="feBlend5062" />
      <feColorMatrix
         in="blend2"
         values="1"
         type="saturate"
         result="colormatrix2"
         id="feColorMatrix5064" />
      <feComposite
         in="colormatrix2"
         in2="SourceGraphic"
         operator="in"
         k2="1"
         result="composite2"
         id="feComposite5066" />
    </filter>
    <filter
       style="color-interpolation-filters:sRGB;"
       inkscape:label="Colorize"
       id="filter5084"
       x="0"
       y="0"
       width="1"
       height="1">
      <feComposite
         in2="SourceGraphic"
         operator="arithmetic"
         k1="0"
         k2="1"
         result="composite1"
         id="feComposite5070" />
      <feColorMatrix
         in="composite1"
         values="1"
         type="saturate"
         result="colormatrix1"
         id="feColorMatrix5072" />
      <feFlood
         flood-opacity="1"
         flood-color="rgb(80,218,76)"
         result="flood1"
         id="feFlood5074" />
      <feBlend
         in="flood1"
         in2="colormatrix1"
         mode="multiply"
         result="blend1"
         id="feBlend5076" />
      <feBlend
         in2="blend1"
         mode="screen"
         result="blend2"
         id="feBlend5078" />
      <feColorMatrix
         in="blend2"
         values="1"
         type="saturate"
         result="colormatrix2"
         id="feColorMatrix5080" />
      <feComposite
         in="colormatrix2"
         in2="SourceGraphic"
         operator="in"
         k2="1"
         result="composite2"
         id="feComposite5082" />
    </filter>
  </defs>
  <path
     class="cls-1"
     d="M332.46,100.75h10.48v22.71h17.94v-22.71h10.48v55.58h-10.48v-22.87h-17.94v22.87h-10.48v-55.58Z"
     id="path2145"
     style="filter:url(#filter4844);fill:#50da4c;fill-opacity:1" />
  <path
     class="cls-1"
     d="M409.16,144.42h-18.9l-2.7,11.91h-10.96l13.26-55.58h19.69l13.26,55.58h-10.96l-2.7-11.91ZM392.48,134.42h14.37l-6.43-28.42h-1.43l-6.51,28.42Z"
     id="path2147"
     style="filter:url(#filter4860);fill:#50da4c;fill-opacity:1" />
  <path
     class="cls-1"
     d="M447.66,147.92c2.01,0,3.66-.3,4.96-.91,1.3-.61,2.3-1.43,3.02-2.46.71-1.03,1.2-2.22,1.47-3.57.26-1.35.4-2.74.4-4.17v-1.43h10.48v1.43c0,6.62-1.73,11.71-5.2,15.28-3.47,3.57-8.51,5.36-15.12,5.36s-11.38-1.93-15.08-5.8c-3.71-3.86-5.56-9.5-5.56-16.91v-12.39c0-3.55.48-6.73,1.43-9.57.95-2.83,2.33-5.21,4.13-7.15,1.8-1.93,3.97-3.41,6.51-4.45,2.54-1.03,5.4-1.55,8.57-1.55s6.19.48,8.73,1.43c2.54.95,4.67,2.33,6.39,4.13,1.72,1.8,3.02,3.97,3.89,6.51s1.31,5.4,1.31,8.57v1.43h-10.48v-1.43c0-1.32-.16-2.65-.48-3.97-.32-1.32-.85-2.51-1.59-3.57-.74-1.06-1.75-1.92-3.02-2.58-1.27-.66-2.86-.99-4.76-.99-1.75,0-3.26.33-4.53.99-1.27.66-2.33,1.56-3.18,2.7-.85,1.14-1.47,2.46-1.87,3.97s-.6,3.08-.6,4.72v13.97c0,1.8.19,3.45.56,4.96.37,1.51.95,2.82,1.75,3.93s1.84,1.97,3.14,2.58c1.3.61,2.87.91,4.72.91Z"
     id="path2149"
     style="filter:url(#filter4876);fill:#50da4c;fill-opacity:1" />
  <path
     class="cls-1"
     d="M487.6,156.33h-10.48v-55.58h10.48v22.79h2.3l14.69-22.79h11.83v.48l-17.15,26.6v1.43l18.1,26.6v.48h-12.31l-15.16-22.79h-2.3v22.79Z"
     id="path2151"
     style="filter:url(#filter4892);fill:#50da4c;fill-opacity:1" />
  <path
     class="cls-1"
     d="M523.09,100.75h40.02v10h-14.77v45.57h-10.48v-45.57h-14.77v-10Z"
     id="path2153"
     style="filter:url(#filter4908);fill:#50da4c;fill-opacity:1" />
  <path
     class="cls-1"
     d="M570.41,122.35c0-7.2,1.81-12.78,5.44-16.75,3.62-3.97,8.64-5.96,15.05-5.96s11.42,1.98,15.05,5.96c3.62,3.97,5.44,9.56,5.44,16.75v12.39c0,7.41-1.81,13.05-5.44,16.91-3.63,3.86-8.64,5.8-15.05,5.8s-11.42-1.93-15.05-5.8c-3.63-3.86-5.44-9.5-5.44-16.91v-12.39ZM590.9,147.92c1.91,0,3.49-.3,4.76-.91,1.27-.61,2.3-1.47,3.1-2.58s1.35-2.43,1.67-3.97c.32-1.53.48-3.23.48-5.08v-13.66c0-1.75-.19-3.39-.56-4.92-.37-1.53-.95-2.86-1.75-3.97-.79-1.11-1.83-2-3.1-2.66-1.27-.66-2.81-.99-4.6-.99s-3.34.33-4.6.99c-1.27.66-2.3,1.55-3.1,2.66s-1.38,2.43-1.75,3.97c-.37,1.54-.56,3.18-.56,4.92v13.66c0,1.85.16,3.55.48,5.08.32,1.54.87,2.86,1.67,3.97.79,1.11,1.83,1.97,3.1,2.58,1.27.61,2.86.91,4.76.91Z"
     id="path2155"
     style="filter:url(#filter4924);fill:#50da4c;fill-opacity:1" />
  <path
     class="cls-1"
     d="M618.05,146.33h5.24v-35.57h-5.24v-10h24.38c2.65,0,4.99.37,7.03,1.11,2.04.74,3.76,1.75,5.16,3.02,1.4,1.27,2.46,2.79,3.18,4.57.72,1.77,1.07,3.69,1.07,5.76v.95c0,3.18-.89,5.72-2.66,7.62-1.77,1.91-4.01,3.23-6.71,3.97v1.43c2.7.74,4.93,2.08,6.71,4.01,1.77,1.93,2.66,4.49,2.66,7.66v.95c0,2.06-.36,3.98-1.07,5.76-.71,1.77-1.77,3.31-3.18,4.6-1.4,1.3-3.12,2.32-5.16,3.06-2.04.74-4.38,1.11-7.03,1.11h-24.38v-10ZM633.77,123.46h7.62c2.22,0,4.02-.46,5.4-1.39,1.38-.93,2.06-2.5,2.06-4.72v-.48c0-2.22-.69-3.8-2.06-4.72-1.38-.93-3.18-1.39-5.4-1.39h-7.62v12.7ZM633.77,146.33h7.62c2.22,0,4.02-.48,5.4-1.43,1.38-.95,2.06-2.54,2.06-4.76v-.48c0-2.22-.69-3.81-2.06-4.76-1.38-.95-3.18-1.43-5.4-1.43h-7.62v12.86Z"
     id="path2157"
     style="filter:url(#filter4940);fill:#50da4c;fill-opacity:1" />
  <path
     class="cls-1"
     d="M668.7,100.75h35.09v10h-24.61v12.7h23.66v10h-23.66v12.86h25.57v10h-36.05v-55.58Z"
     id="path2159"
     style="filter:url(#filter4956);fill:#50da4c;fill-opacity:1" />
  <path
     class="cls-1"
     d="M753.1,156.33h-10.48v-16.67c0-1.27-.33-2.3-.99-3.1-.66-.79-1.76-1.19-3.3-1.19h-12.07v20.96h-10.48v-55.58h21.28c2.86,0,5.37.4,7.54,1.19,2.17.79,3.98,1.89,5.44,3.3,1.45,1.4,2.57,3.03,3.33,4.88.77,1.85,1.15,3.84,1.15,5.96v1.91c0,2.28-.61,4.41-1.83,6.39-1.22,1.99-3.1,3.51-5.64,4.57v1.43c1.85.21,3.32.93,4.41,2.14,1.08,1.22,1.63,2.75,1.63,4.6v19.21ZM726.27,125.37h10c2.54,0,4.47-.6,5.8-1.79,1.32-1.19,1.98-2.87,1.98-5.04v-.95c0-1.85-.66-3.45-1.98-4.8-1.32-1.35-3.26-2.02-5.8-2.02h-10v14.61Z"
     id="path2161"
     style="filter:url(#filter4972);fill:#50da4c;fill-opacity:1" />
  <path
     class="cls-1"
     d="M332.46,176.18h35.57v10h-25.09v12.7h24.61v10h-24.61v22.87h-10.48v-55.58Z"
     id="path2163"
     style="filter:url(#filter4988);fill:#50da4c;fill-opacity:1" />
  <path
     class="cls-1"
     d="M379.78,176.18h35.09v10h-24.61v12.7h23.66v10h-23.66v12.86h25.57v10h-36.05v-55.58Z"
     id="path2165"
     style="filter:url(#filter5004);fill:#50da4c;fill-opacity:1" />
  <path
     class="cls-1"
     d="M454.89,193.17c0-2.22-.86-4.15-2.58-5.8-1.72-1.64-4.14-2.46-7.26-2.46-2.65,0-4.74.54-6.27,1.63-1.54,1.09-2.3,2.55-2.3,4.41,0,.95.19,1.81.56,2.58.37.77,1.02,1.46,1.95,2.06.93.61,2.14,1.15,3.65,1.63,1.51.48,3.43.93,5.76,1.35,5.82,1.06,10.27,2.83,13.34,5.32,3.07,2.49,4.6,6.17,4.6,11.04v.95c0,2.59-.46,4.94-1.39,7.03-.93,2.09-2.26,3.88-4.01,5.36-1.75,1.48-3.86,2.62-6.35,3.41-2.49.79-5.29,1.19-8.42,1.19-3.65,0-6.87-.52-9.65-1.55-2.78-1.03-5.09-2.46-6.95-4.29-1.85-1.83-3.26-3.97-4.21-6.43-.95-2.46-1.43-5.15-1.43-8.06v-2.38h10.48v1.91c0,3.34.97,6,2.9,7.98s4.94,2.98,9.01,2.98c3.18,0,5.53-.69,7.07-2.06,1.53-1.38,2.3-3.02,2.3-4.92,0-.9-.16-1.76-.48-2.58s-.87-1.56-1.67-2.22c-.79-.66-1.88-1.26-3.26-1.79-1.38-.53-3.12-.98-5.24-1.35-2.81-.48-5.37-1.1-7.7-1.87-2.33-.77-4.35-1.79-6.07-3.06-1.72-1.27-3.06-2.86-4.01-4.76-.95-1.91-1.43-4.23-1.43-6.99v-.48c0-2.28.46-4.38,1.39-6.31.93-1.93,2.22-3.61,3.89-5.04,1.67-1.43,3.68-2.54,6.03-3.34,2.35-.79,4.99-1.19,7.9-1.19,3.28,0,6.19.46,8.73,1.39,2.54.93,4.67,2.18,6.39,3.77,1.72,1.59,3.02,3.41,3.89,5.48s1.31,4.24,1.31,6.51v2.86h-10.48v-1.91Z"
     id="path2167"
     style="filter:url(#filter5020);fill:#50da4c;fill-opacity:1" />
  <path
     class="cls-1"
     d="M473.15,176.18h40.02v10h-14.77v45.57h-10.48v-45.57h-14.77v-10Z"
     id="path2169"
     style="filter:url(#filter5036);fill:#50da4c;fill-opacity:1" />
  <polygon
     class="cls-1"
     points="134.53 199.52 134.53 67.19 101.45 67.19 101.45 100.28 67.81 100.28 67.81 133.36 101.45 133.36 101.45 199.52 67.81 199.52 67.81 232.6 167.06 232.6 167.06 199.52 134.53 199.52"
     id="polygon2171"
     style="filter:url(#filter5052);fill:#50da4c;fill-opacity:1" />
  <polygon
     class="cls-1"
     points="233.11 199.58 233.11 100.33 200.03 100.33 200.03 133.42 166.95 133.42 166.95 166.5 200.03 166.5 200.03 232.66 233.11 232.66 266.19 232.66 266.19 199.58 233.11 199.58"
     id="polygon2173"
     style="filter:url(#filter5068);fill:#50da4c;fill-opacity:1" />
  <polygon
     class="cls-1"
     points="68.03 299.93 34.18 266.63 34.18 34.66 266.15 34.66 300 67.96 300 0 0 0 0 300 68.03 299.93"
     id="polygon2175"
     style="filter:url(#filter5084);fill:#50da4c;fill-opacity:1" />
</svg>
